<?xml version="1.0" encoding="utf-8"?>
<!-- Generator: Adobe Illustrator 23.0.3, SVG Export Plug-In . SVG Version: 6.00 Build 0)  -->
<svg version="1.1" id="Layer_1" xmlns="http://www.w3.org/2000/svg" xmlns:xlink="http://www.w3.org/1999/xlink" x="0px" y="0px"
	 viewBox="0 0 145 15.1" style="enable-background:new 0 0 145 15.1;" xml:space="preserve">
<style type="text/css">
	.st0{fill:#FFFFFF;}
</style>
<path class="st0" d="M6.3,7.3c1.9-0.4,2.9-1.9,2.6-3.8c-0.3-2-2-2.8-3.8-2.9c-1.7-0.1-3.4,0-5.1,0v14.1c1.7,0,3.4,0.1,5.1,0
	c2-0.1,4-1,4.4-3.1C9.9,9.4,8.6,7.5,6.3,7.3z M1.4,1.8c2,0,6.1-0.6,6.2,2.4c0.1,3.1-4.1,2.6-6.2,2.6C1.4,6.8,1.4,1.8,1.4,1.8z
	 M1.4,13.5V7.9c2.4,0,7.1-0.6,6.8,3.1C8,14.2,3.6,13.5,1.4,13.5z M16,0.6h-1.4v14.1h8.2v-1.2H16V0.6z M26.5,14.7h1.4V0.6h-1.4V14.7z
	 M40,7.9c-1.9-1.1-6.1-1-5.7-4.2c0.3-2.9,4.7-2.9,6.1-1L41.6,2c-1.7-2.2-5.5-2.4-7.5-0.6s-1.3,5,1,6.1c1.9,0.9,6.6,1.3,5.2,4.6
	c-1.1,2.6-5.2,2.1-6.4,0l-1.3,0.8c1.7,2.2,5.3,2.9,7.7,1.3C42.4,12.7,42.4,9.3,40,7.9z M53.1,7.9c-1.9-1.1-6.1-1-5.7-4.2
	c0.3-2.9,4.7-2.9,6.1-1L54.7,2c-1.7-2.2-5.5-2.4-7.5-0.6s-1.3,5,1,6.1c1.9,0.9,6.6,1.3,5.2,4.6c-1.1,2.6-5.2,2.1-6.4,0l-1.3,0.8
	c1.7,2.2,5.3,2.9,7.7,1.3C55.5,12.7,55.4,9.3,53.1,7.9z M91,7.3c1.9-0.4,2.9-1.9,2.6-3.8c-0.3-2-2-2.8-3.8-2.9c-1.7-0.1-3.4,0-5.1,0
	v14.1c1.7,0,3.4,0.1,5.1,0c2-0.1,4-1,4.4-3.1C94.5,9.4,93.2,7.5,91,7.3z M86,1.8c2,0,6.1-0.6,6.2,2.4c0.1,3.1-4.1,2.6-6.2,2.6V1.8z
	 M86,13.5V7.9c2.4,0,7.1-0.6,6.8,3.1C92.6,14.2,88.3,13.5,86,13.5z M103.1,0.6c-3,1-4.8,3.9-4.8,7c0,3.7,2.5,6.8,6.1,7.3
	c3.1,0.5,6.4-0.6,8-3.5c1.5-2.7,1.3-6.3-0.7-8.7S106-0.4,103.1,0.6z M105.9,13.9c-3.6,0-6.2-2.7-6.2-6.2c0-3.6,2.7-6.2,6.2-6.2
	c3.6,0,6.2,2.7,6.2,6.2S109.4,13.9,105.9,13.9z M128.8,12.9l-9-12.4H118v14.1h1.4V2.3l8.9,12.4h1.8V0.6h-1.4L128.8,12.9L128.8,12.9z
	 M137.1,13.5V8h7.1V6.8h-7.1v-5h7.6V0.6h-9v14.1h9.3v-1.2H137.1L137.1,13.5z M76.2,10.3c-0.2,1.3-0.8,3.2-2,4c-1.6,1-2.5-0.7-3-2
	c-0.2-0.6-0.3-0.9-0.1-1.5c0.2-0.4,0.3-0.7,0.5-1.1c0.5-1.1,1.1-2.6,2.3-3.2c0.5-0.2,1.1-0.4,1.2,0.2c0.1,0.5-0.4,1,0,1.5
	c1,1,1.9-1.1,0.9-1.9c-1.2-1.1-2.8-0.1-3.6,1c-0.7,1-1.2,2.2-1.8,3.3c-0.4-2.1-0.7-4.1-0.8-6.2c1-0.3,2.1-0.8,2.8-1.6
	c0.7-0.8,0.9-2.2-0.2-2.7c-2.5-1.2-3.9,2.6-4.2,4.4c-1,0.5-2.2,0.9-3.1,1.7c-1.5,1.2-2.3,3.1-2.1,5c0.1,1.8,1.3,3.3,3.1,3.6
	c1.7,0.4,2.9-0.5,3.9-1.9c1,1.5,2.9,2.7,4.7,1.5c1.4-1,1.6-2.7,2.1-4.1C76.8,10.3,76.2,10.3,76.2,10.3z M71.5,0.5
	c0.6-0.1,1.3,0.1,1.4,0.8c0.2,0.8-0.5,1.5-1.1,1.9S70.6,3.9,70,4.1C70,3,70,0.8,71.5,0.5z M67.1,14.6c-2.3,0-2.4-4.3-2.3-5.9
	c0.1-2.2,1.7-3,3.5-3.7c-0.3,2.6,0,5.4,1.3,7.6C69.1,13.6,68.3,14.6,67.1,14.6z"/>
</svg>
